<?xml version="1.0" encoding="iso-8859-1"?>
<!-- Generator: Adobe Illustrator 18.0.0, SVG Export Plug-In . SVG Version: 6.00 Build 0)  -->
<!DOCTYPE svg PUBLIC "-//W3C//DTD SVG 1.1//EN" "http://www.w3.org/Graphics/SVG/1.1/DTD/svg11.dtd">
<svg xmlns="http://www.w3.org/2000/svg" xmlns:xlink="http://www.w3.org/1999/xlink" version="1.1" id="Capa_1" x="0px" y="0px" viewBox="0 0 488.697 488.697" style="enable-background:new 0 0 488.697 488.697;" xml:space="preserve" width="512px" height="512px">
<g>
	<path d="M157.139,208.222c1.088,0,2.175-0.415,3.005-1.245l32.277-32.278c1.66-1.66,1.66-4.351,0-6.011   c-1.66-1.659-4.351-1.659-6.011,0l-32.277,32.278c-1.66,1.66-1.66,4.351,0,6.011C154.964,207.807,156.051,208.222,157.139,208.222z   " fill="#D80027"/>
	<path d="M157.139,251.01c1.088,0,2.175-0.415,3.005-1.245l75.066-75.067c1.66-1.66,1.66-4.351,0-6.011   c-1.66-1.659-4.351-1.659-6.011,0l-75.066,75.067c-1.66,1.66-1.66,4.351,0,6.011C154.964,250.595,156.051,251.01,157.139,251.01z" fill="#D80027"/>
	<path d="M271.988,168.688L154.134,286.543c-1.66,1.66-1.66,4.351,0,6.011c0.83,0.83,1.917,1.245,3.005,1.245   c1.088,0,2.175-0.415,3.005-1.245l117.854-117.856c1.66-1.66,1.66-4.351,0-6.011C276.338,167.029,273.648,167.029,271.988,168.688z   " fill="#D80027"/>
	<path d="M230.827,119.724c-69.255,0-125.598,56.343-125.598,125.598S161.572,370.92,230.827,370.92s125.598-56.343,125.598-125.598   S300.082,119.724,230.827,119.724z M230.827,362.42c-64.568,0-117.098-52.53-117.098-117.098   c0-64.568,52.53-117.098,117.098-117.098c64.568,0,117.098,52.53,117.098,117.098C347.925,309.89,295.395,362.42,230.827,362.42z" fill="#D80027"/>
	<path d="M264.378,63.594c10.674,1.96,21.236,4.888,31.394,8.703c0.493,0.185,0.997,0.272,1.494,0.272   c1.72,0,3.339-1.052,3.979-2.756c0.825-2.197-0.287-4.648-2.484-5.473c-10.628-3.992-21.68-7.056-32.848-9.106   c-2.31-0.426-4.523,1.104-4.948,3.413C260.542,60.955,262.069,63.17,264.378,63.594z" fill="#D80027"/>
	<path d="M182.949,423.824c-8.07-2.161-16.063-4.9-23.756-8.141c-2.163-0.913-4.656,0.104-5.566,2.267   c-0.912,2.163,0.104,4.655,2.267,5.566c8.051,3.392,16.414,6.257,24.858,8.519c0.368,0.099,0.738,0.145,1.102,0.145   c1.877,0,3.594-1.252,4.103-3.152C186.562,426.762,185.216,424.432,182.949,423.824z" fill="#D80027"/>
	<path d="M403.295,216.676h-15.617c-6.571-36.068-25.319-67.938-51.812-91.188V14.01c0-7.725-6.285-14.01-14.01-14.01H139.798   c-7.725,0-14.01,6.285-14.01,14.01v111.477c-33.321,29.244-54.395,72.122-54.395,119.835c0,47.713,21.074,90.592,54.395,119.835   v109.529c0,7.725,6.285,14.01,14.01,14.01h182.059c7.725,0,14.01-6.285,14.01-14.01V365.158   c26.73-23.458,45.575-55.691,51.985-92.157h15.444c7.725,0,14.01-6.285,14.01-14.01v-28.305   C417.305,222.96,411.02,216.676,403.295,216.676z M134.288,87.768c29.002-17.808,62.328-27.214,96.539-27.214   c2.347,0,4.25-1.903,4.25-4.25c0-2.347-1.903-4.25-4.25-4.25c-34.049,0-67.261,8.909-96.539,25.821V14.01   c0-3.039,2.472-5.51,5.51-5.51h12.147v51.709c0,2.347,1.903,4.25,4.25,4.25s4.25-1.903,4.25-4.25V8.5h161.412   c3.038,0,5.51,2.472,5.51,5.51v104.52c-26.815-20.466-60.279-32.642-96.539-32.642s-69.725,12.176-96.539,32.642V87.768z    M327.366,402.876c-29.001,17.809-62.326,27.214-96.539,27.214c-2.347,0-4.25,1.903-4.25,4.25s1.903,4.25,4.25,4.25   c34.05,0,67.262-8.909,96.539-25.821v61.918c0,3.039-2.472,5.51-5.51,5.51h-10.321v-47.799c0-2.347-1.903-4.25-4.25-4.25   s-4.25,1.903-4.25,4.25v47.799H139.798c-3.039,0-5.51-2.472-5.51-5.51V372.115c26.815,20.466,60.28,32.642,96.539,32.642   s69.724-12.176,96.539-32.642V402.876z M230.827,396.257c-83.226,0-150.935-67.709-150.935-150.935S147.602,94.388,230.827,94.388   s150.934,67.708,150.934,150.934S314.053,396.257,230.827,396.257z M408.805,258.99c0,3.039-2.472,5.51-5.51,5.51h-14.191   c0.757-6.29,1.157-12.688,1.157-19.178c0-6.823-0.432-13.547-1.268-20.146h14.302c3.038,0,5.51,2.472,5.51,5.51V258.99z" fill="#D80027"/>
</g>
<g>
</g>
<g>
</g>
<g>
</g>
<g>
</g>
<g>
</g>
<g>
</g>
<g>
</g>
<g>
</g>
<g>
</g>
<g>
</g>
<g>
</g>
<g>
</g>
<g>
</g>
<g>
</g>
<g>
</g>
</svg>
